HIERARCHY
ROOT Hips
{
	OFFSET 0.000000 0.000000 0.000000
	CHANNELS 6 Xposition Yposition Zposition Zrotation Yrotation Xrotation 
	JOINT LeftUpLeg_virtual
	{
		OFFSET 0.000000 0.000000 0.000000
		CHANNELS 3 Zrotation Yrotation Xrotation
		JOINT LeftUpLeg
		{
			OFFSET 8.479694 -4.795517 -0.379053
			CHANNELS 3 Zrotation Yrotation Xrotation
			JOINT LeftLeg
			{
				OFFSET 0.485052 -32.551468 0.112863
				CHANNELS 3 Zrotation Yrotation Xrotation
				JOINT LeftFoot
				{
					OFFSET 0.438033 -32.635670 -3.012641
					CHANNELS 3 Zrotation Yrotation Xrotation
					JOINT LeftToeBase
					{
						OFFSET 0.970169 -13.225353 11.864223
						CHANNELS 3 Zrotation Yrotation Xrotation
						End Site
						{
							OFFSET 0.000000 0.000000 0.000000
						}
					}
				}
			}
		}
	}
	JOINT RightUpLeg_virtual
	{
		OFFSET 0.000000 0.000000 0.000000
		CHANNELS 3 Zrotation Yrotation Xrotation
		JOINT RightUpLeg
		{
			OFFSET -8.479694 -4.795517 -0.379053
			CHANNELS 3 Zrotation Yrotation Xrotation
			JOINT RightLeg
			{
				OFFSET -0.484100 -32.551483 0.112903
				CHANNELS 3 Zrotation Yrotation Xrotation
				JOINT RightFoot
				{
					OFFSET -0.438985 -32.635651 -3.012681
					CHANNELS 3 Zrotation Yrotation Xrotation
					JOINT RightToeBase
					{
						OFFSET -0.970169 -13.225354 11.864223
						CHANNELS 3 Zrotation Yrotation Xrotation
						End Site
						{
							OFFSET 0.000000 0.000000 0.000000
						}
					}
				}
			}
		}
	}
	JOINT Spine_virtual
	{
		OFFSET 0.000000 0.000000 0.000000
		CHANNELS 3 Zrotation Yrotation Xrotation
		JOINT Spine
		{
			OFFSET 0.000000 7.722015 1.166203
			CHANNELS 3 Zrotation Yrotation Xrotation
			JOINT Spine1
			{
				OFFSET 0.000000 12.024086 0.248766
				CHANNELS 3 Zrotation Yrotation Xrotation
				JOINT Spine2
				{
					OFFSET -0.000000 11.503036 -0.491240
					CHANNELS 3 Zrotation Yrotation Xrotation
					JOINT Neck_virtual
					{
						OFFSET 0.000000 0.000000 0.000000
						CHANNELS 3 Zrotation Yrotation Xrotation
						JOINT Neck
						{
							OFFSET 0.000000 18.430687 -3.123054
							CHANNELS 3 Zrotation Yrotation Xrotation
							JOINT Head
							{
								OFFSET -0.000000 9.051071 1.034021
								CHANNELS 3 Zrotation Yrotation Xrotation
								End Site
								{
									OFFSET 0.000000 0.000000 0.000000
								}
							}
						}
					}
					JOINT LeftShoulder_virtual
					{
						OFFSET 0.000000 0.000000 0.000000
						CHANNELS 3 Zrotation Yrotation Xrotation
						JOINT LeftShoulder
						{
							OFFSET 6.197824 13.665230 -4.064723
							CHANNELS 3 Zrotation Yrotation Xrotation
							JOINT LeftArm
							{
								OFFSET 7.778132 -0.187073 -1.709282
								CHANNELS 3 Zrotation Yrotation Xrotation
								JOINT LeftForeArm
								{
									OFFSET 21.954697 0.000000 -2.041093
									CHANNELS 3 Zrotation Yrotation Xrotation
									JOINT LeftHand
									{
										OFFSET 22.992908 0.000000 -0.870901
										CHANNELS 3 Zrotation Yrotation Xrotation
										End Site
										{
											OFFSET 0.000000 0.000000 0.000000
										}
									}
								}
							}
						}
					}
					JOINT RightShoulder_virtual
					{
						OFFSET 0.000000 0.000000 0.000000
						CHANNELS 3 Zrotation Yrotation Xrotation
						JOINT RightShoulder
						{
							OFFSET -6.197824 13.665230 -4.064723
							CHANNELS 3 Zrotation Yrotation Xrotation
							JOINT RightArm
							{
								OFFSET -7.778132 -0.187073 -1.709282
								CHANNELS 3 Zrotation Yrotation Xrotation
								JOINT RightForeArm
								{
									OFFSET -21.954697 0.000000 -2.041093
									CHANNELS 3 Zrotation Yrotation Xrotation
									JOINT RightHand
									{
										OFFSET -22.992908 0.000000 -0.870901
										CHANNELS 3 Zrotation Yrotation Xrotation
										End Site
										{
											OFFSET 0.000000 0.000000 0.000000
										}
									}
								}
							}
						}
					}
				}
			}
		}
	}
}
MOTION
Frames: 14
Frame Time: 0.033333
10.347707 80.672478 -9.746763 179.887211 -1.966056 179.989391 -2.047982 -2.309622 12.806358 3.228618 -6.667132 -22.047472 8.057616 2.865101 27.823245 -2.577996 -6.485158 -12.600184 0.000000 0.000000 0.000000 1.659711 -3.800453 13.780030 -4.113658 4.655967 -24.173950 1.615916 7.640968 33.066042 13.974909 5.554309 -14.744128 0.000000 0.000000 0.000000 5.114844 0.150171 -1.144153 -2.897692 0.961364 0.438980 0.160837 -1.835973 5.864201 0.041253 0.018810 0.031843 -0.243187 -0.406556 7.382255 1.737466 -1.774231 -5.220629 0.000000 0.000000 0.000000 1.031542 0.289332 4.597850 -12.555640 -8.176926 3.976234 -54.793765 -10.360375 9.685566 2.338594 -27.385157 0.070207 0.000000 0.000000 0.000000 -2.978309 1.640864 3.977078 26.952077 -2.913260 4.585338 48.240786 7.765594 12.453029 0.135671 20.110536 -3.389457 0.000000 0.000000 0.000000 
10.399379 80.664879 -9.714466 179.833949 -1.801683 179.909983 -1.959971 -2.188707 12.675749 3.403904 -7.039408 -22.008741 8.238212 2.880581 27.567262 -2.278804 -6.142218 -12.626817 0.000000 0.000000 0.000000 1.756278 -3.808016 13.797095 -3.935683 4.463264 -23.985224 1.804138 7.602066 33.255590 14.204460 5.886464 -14.770214 0.000000 0.000000 0.000000 5.131512 0.122857 -1.160322 -2.960750 0.933760 0.466900 0.158807 -1.823676 5.895094 0.019841 0.015540 -0.028504 -0.163306 -0.374293 7.449711 1.732630 -1.888759 -5.205559 0.000000 0.000000 0.000000 1.109229 0.278481 4.643949 -12.590523 -8.295501 4.058714 -54.701872 -10.652296 9.787310 2.302622 -27.406931 0.048085 0.000000 0.000000 0.000000 -2.923052 1.609461 4.078041 26.926680 -2.934803 4.422939 48.271228 7.455327 12.322506 0.082129 20.231155 -3.414014 0.000000 0.000000 0.000000 
10.447978 80.657997 -9.685937 179.840766 -1.515568 179.981318 -1.968641 -2.173717 12.536153 3.418859 -6.904176 -21.960638 8.230234 2.972984 27.630758 -2.257451 -6.187018 -12.635182 0.000000 0.000000 0.000000 1.762075 -3.694015 13.660138 -3.905035 4.541524 -23.938683 1.825719 7.676517 33.229628 14.152125 5.953688 -14.790493 0.000000 0.000000 0.000000 5.150264 0.106347 -1.375475 -2.964390 0.814537 0.396397 0.194363 -1.883611 5.901902 0.051080 0.008844 -0.015537 -0.231719 -0.391884 7.491039 1.636991 -1.805872 -5.153693 0.000000 0.000000 0.000000 1.055811 0.329894 4.646574 -12.573813 -8.259675 4.054714 -54.516053 -10.945725 9.938647 2.227388 -27.321884 0.012264 0.000000 0.000000 0.000000 -2.960691 1.703698 4.153389 26.969359 -3.050897 4.395258 48.277850 6.995735 11.664714 0.040056 20.496194 -3.530717 0.000000 0.000000 0.000000 
10.488116 80.653969 -9.664857 179.870259 -1.090441 179.992178 -1.996381 -2.127893 12.458003 3.427887 -6.702180 -21.881824 8.238305 3.075512 27.731709 -2.199672 -6.208764 -12.659575 0.000000 0.000000 0.000000 1.739990 -3.622399 13.571806 -3.868723 4.755082 -23.848364 1.866965 7.791483 33.116548 14.082665 6.047989 -14.801015 0.000000 0.000000 0.000000 5.209848 0.142823 -1.561228 -2.955633 0.753773 0.313894 0.191364 -1.884492 5.962283 0.063441 -0.000983 -0.003757 -0.256122 -0.444251 7.512180 1.541339 -1.587151 -5.063437 0.000000 0.000000 0.000000 1.000544 0.377824 4.693283 -12.566909 -8.321966 4.086017 -54.245779 -11.348533 10.138775 2.143644 -27.139989 -0.050424 0.000000 0.000000 0.000000 -3.004499 1.704326 4.151710 27.111777 -3.206822 4.240603 48.365205 6.400341 10.836926 -0.033872 20.742753 -3.569620 0.000000 0.000000 0.000000 
10.533160 80.651451 -9.645370 179.877567 -0.508729 -179.960253 -2.028673 -2.043424 12.373861 3.451838 -6.416069 -21.849232 8.234657 3.236103 27.894885 -2.138404 -6.235530 -12.661382 0.000000 0.000000 0.000000 1.695112 -3.327650 13.478654 -3.788591 4.869591 -23.761432 1.918299 7.940038 32.907425 14.003661 6.163811 -14.782018 0.000000 0.000000 0.000000 5.270199 0.278107 -1.746825 -2.946062 0.657149 0.232372 0.140432 -1.897455 6.023457 0.030873 -0.003870 -0.019951 -0.232171 -0.418335 7.562759 1.361474 -1.614493 -4.952320 0.000000 0.000000 0.000000 1.048151 0.316558 4.727555 -12.626813 -8.228753 4.177474 -53.989285 -11.691676 10.367573 2.090319 -27.039783 -0.076389 0.000000 0.000000 0.000000 -2.984717 1.716767 4.205532 27.376911 -3.303590 4.173780 48.405096 5.881981 9.620212 -0.086890 20.697753 -3.623100 0.000000 0.000000 0.000000 
10.597644 80.652733 -9.622204 179.896118 0.110491 -179.965772 -2.034942 -1.908830 12.327586 3.507527 -6.115176 -21.855752 8.253097 3.390020 28.119161 -2.055365 -6.244908 -12.669177 0.000000 0.000000 0.000000 1.646083 -3.125166 13.403579 -3.709634 5.241944 -23.619614 1.964549 8.032252 32.669164 13.884853 6.259625 -14.798723 0.000000 0.000000 0.000000 5.379191 0.440355 -1.885150 -2.920907 0.549542 0.184293 0.090136 -1.903055 6.142300 -0.006649 -0.006170 0.022988 -0.243915 -0.340554 7.588753 1.114643 -1.569712 -4.811047 0.000000 0.000000 0.000000 1.040416 0.345878 4.717816 -12.574468 -8.113282 4.172582 -53.850704 -12.246786 10.554618 2.022503 -26.607342 -0.151486 0.000000 0.000000 0.000000 -3.030687 1.745288 4.168379 27.735781 -3.384330 4.109725 48.425829 5.384083 8.254934 -0.101995 20.426577 -3.661206 0.000000 0.000000 0.000000 
10.665789 80.655190 -9.602787 179.945090 0.658382 -179.925938 -2.015006 -1.777284 12.227683 3.567216 -5.605473 -21.941484 8.197165 3.510249 28.426952 -2.067705 -6.348312 -12.672832 0.000000 0.000000 0.000000 1.612368 -2.937808 13.288515 -3.632202 5.675295 -23.503318 1.990441 8.089106 32.446704 13.740319 6.325442 -14.767629 0.000000 0.000000 0.000000 5.482166 0.749751 -2.018598 -2.863904 0.475349 0.109136 0.081081 -1.885816 6.237189 0.036518 -0.106115 0.020830 -0.362786 -0.532475 7.711314 0.694208 -1.432114 -4.663807 0.000000 0.000000 0.000000 0.955962 0.206949 4.760781 -12.496465 -8.047827 4.309880 -53.715654 -12.887869 10.741297 2.015414 -26.273807 -0.162336 0.000000 0.000000 0.000000 -3.162458 1.624098 4.257223 28.163870 -3.465595 4.047633 48.219046 4.853316 6.466731 -0.115453 19.786285 -3.731156 0.000000 0.000000 0.000000 
10.750171 80.656471 -9.594655 179.923329 1.123280 -179.950882 -2.000425 -1.470485 12.113277 3.609875 -5.077885 -22.011021 8.054358 3.671666 28.762866 -2.202204 -6.565107 -12.605118 0.000000 0.000000 0.000000 1.561310 -2.668300 13.209974 -3.632832 6.102949 -23.330205 1.955439 8.065225 32.336492 13.533315 6.336623 -14.868490 0.000000 0.000000 0.000000 5.576601 0.889376 -2.102798 -2.832559 0.205224 0.042907 0.031696 -1.937697 6.360295 -0.003238 0.003953 0.033672 -0.347251 -0.326017 7.780203 0.154937 -1.147722 -4.521832 0.000000 0.000000 0.000000 1.006708 0.210981 4.800922 -12.374929 -7.925763 4.383071 -53.665869 -13.438653 10.847264 1.875990 -25.949719 -0.097237 0.000000 0.000000 0.000000 -3.144656 1.610138 4.298372 28.671857 -3.576061 3.961194 47.726111 4.319891 4.073943 -0.086901 18.929367 -3.692118 0.000000 0.000000 0.000000 
10.812351 80.654099 -9.606267 -179.977206 1.426309 179.997573 -1.841679 -1.243093 11.982546 3.723812 -4.511175 -22.081056 7.873830 3.904830 29.205711 -2.434685 -6.882277 -12.526053 0.000000 0.000000 0.000000 1.626138 -2.297123 13.164383 -3.665833 6.592372 -23.091447 1.830443 7.852066 32.288589 13.274811 6.276895 -15.022760 0.000000 0.000000 0.000000 5.724797 1.235145 -2.105476 -2.723059 0.077586 -0.018239 0.025594 -2.052007 6.467082 -0.005010 -0.086608 -0.032721 -0.375067 -0.484585 7.894712 -0.538900 -1.106828 -4.361093 0.000000 0.000000 0.000000 0.998347 0.172672 4.892566 -12.150871 -7.782803 4.452254 -53.582974 -13.876635 10.781828 1.767566 -25.665638 0.121177 0.000000 0.000000 0.000000 -3.183256 1.604786 4.356324 29.283688 -3.717428 3.863877 46.886629 3.789882 0.851093 -0.084923 17.957092 -3.601513 0.000000 0.000000 0.000000 
10.859746 80.647095 -9.641458 -179.981973 1.376033 -179.952412 -1.706007 -1.030418 11.818549 3.815792 -4.261688 -22.281622 7.569047 4.017300 29.672848 -2.578495 -7.095075 -12.365655 0.000000 0.000000 0.000000 1.746881 -1.833027 13.023123 -3.699852 6.776371 -22.944953 1.730866 7.572375 32.285956 12.995226 6.237862 -15.202335 0.000000 0.000000 0.000000 5.807649 1.382687 -2.168089 -2.658274 -0.275412 -0.137139 -0.033376 -2.020048 6.559970 -0.015092 -0.014660 -0.039855 -0.448527 -0.475509 8.010312 -1.376488 -0.882280 -4.213685 0.000000 0.000000 0.000000 1.006878 0.105647 4.946362 -11.864394 -7.633458 4.553023 -53.501749 -14.169598 10.429799 1.747551 -25.295785 0.229898 0.000000 0.000000 0.000000 -3.193415 1.564212 4.453188 29.888682 -3.873314 3.768176 45.718380 3.359313 -3.277354 -0.051447 16.925091 -3.518529 0.000000 0.000000 0.000000 
10.878022 80.636398 -9.643699 179.984651 1.153918 -179.974078 -1.511626 -0.653576 11.675683 3.808684 -4.121603 -22.615532 7.255953 3.924153 30.171200 -2.916239 -7.557130 -12.145632 0.000000 0.000000 0.000000 1.934984 -1.368482 12.926063 -3.773575 6.966008 -22.745220 1.622115 7.306054 32.324294 12.513959 6.177874 -15.481891 0.000000 0.000000 0.000000 5.892484 1.552562 -2.123273 -2.547191 -0.467585 -0.203984 -0.116842 -1.995082 6.675729 -0.031707 0.028774 0.056855 -0.535175 -0.484675 7.935275 -2.293205 -0.721753 -4.111427 0.000000 0.000000 0.000000 1.009087 0.064855 4.821257 -11.481268 -7.449120 4.690670 -53.443013 -14.263466 9.807471 1.838260 -24.976192 0.369461 0.000000 0.000000 0.000000 -3.164770 1.454038 4.406359 30.469508 -3.947399 3.636024 44.188066 3.086616 -8.158535 -0.066994 15.709886 -3.438948 0.000000 0.000000 0.000000 
10.848351 80.629059 -9.567262 -179.766699 0.680416 -179.932851 -1.076164 -0.264273 11.599474 3.878289 -4.162444 -23.171058 6.929277 3.916593 30.807910 -3.098944 -7.883679 -11.807075 0.000000 0.000000 0.000000 2.397756 -0.919420 12.818739 -3.815274 7.046335 -22.545838 1.398731 7.004756 32.388747 11.966740 6.063196 -15.737135 0.000000 0.000000 0.000000 6.222043 1.911239 -2.044605 -2.224580 -0.773486 -0.274465 -0.162022 -2.069445 6.729037 -0.045487 -0.025842 0.011564 -0.725702 -0.640854 8.025057 -3.258477 -0.531629 -4.106067 0.000000 0.000000 0.000000 0.888115 0.077114 4.975899 -11.075433 -7.218503 4.664409 -53.268396 -14.224754 8.360478 1.646812 -24.536172 0.906761 0.000000 0.000000 0.000000 -3.322587 1.513227 4.482465 30.895493 -4.123190 3.566715 42.374442 2.916594 -13.856553 -0.087429 14.408786 -3.370576 0.000000 0.000000 0.000000 
10.751141 80.620338 -9.379607 -179.865710 -0.119602 -179.929572 -0.836449 -0.074802 11.538404 3.738342 -4.329117 -23.994533 6.642266 3.675442 31.597551 -3.132687 -8.047536 -11.341184 0.000000 0.000000 0.000000 2.527515 -0.612363 12.689296 -3.943345 7.086194 -22.340881 1.172746 6.793432 32.358752 11.221827 5.857139 -16.022623 0.000000 0.000000 0.000000 6.394707 2.113488 -1.934398 -1.981972 -1.001215 -0.288202 -0.303525 -2.091973 6.805527 -0.048817 -0.056618 0.041565 -0.834594 -0.540412 7.989857 -4.167006 -0.368347 -4.173472 0.000000 0.000000 0.000000 0.865059 0.017474 4.977130 -10.621135 -7.054510 4.700771 -53.090278 -14.233976 6.556160 1.717061 -23.891233 1.241670 0.000000 0.000000 0.000000 -3.414246 1.484467 4.414429 31.113318 -4.258278 3.495860 40.370574 2.795152 -19.514165 -0.098790 13.268746 -3.257302 0.000000 0.000000 0.000000 
10.559025 80.611809 -9.068726 -179.770046 -0.952186 -179.922824 -0.461777 0.096572 11.500591 3.566105 -4.489232 -25.088229 6.340813 3.416981 32.608973 -3.126938 -8.181662 -10.772264 0.000000 0.000000 0.000000 2.935309 -0.279557 12.494497 -4.147598 7.018335 -22.110682 0.907486 6.782936 32.301095 10.511114 5.821398 -16.530917 0.000000 0.000000 0.000000 6.770095 2.288402 -1.751634 -1.504099 -1.196044 -0.272251 -0.470478 -2.094056 6.865971 -0.058965 -0.053517 0.072033 -0.964406 -0.674706 8.013423 -5.039510 -0.179258 -4.319090 0.000000 0.000000 0.000000 0.825494 0.041437 5.007703 -10.241138 -6.934444 4.734927 -52.898169 -14.346295 4.429738 1.839344 -22.910142 1.651125 0.000000 0.000000 0.000000 -3.517618 1.452444 4.448179 31.126671 -4.282601 3.435743 38.209260 2.657364 -24.618614 -0.141494 12.388721 -3.160215 0.000000 0.000000 0.000000 
